<?xml version="1.0" encoding="utf-8"?>
<!-- Generator: Adobe Illustrator 25.2.1, SVG Export Plug-In . SVG Version: 6.00 Build 0)  -->
<svg version="1.1" id="Layer_1" xmlns="http://www.w3.org/2000/svg" xmlns:xlink="http://www.w3.org/1999/xlink" x="0px" y="0px"
	 viewBox="0 0 64 64" style="enable-background:new 0 0 64 64;" xml:space="preserve">
<style type="text/css">
	.st0{fill-rule:evenodd;clip-rule:evenodd;fill:#FF4B6F;}
</style>
<path class="st0" d="M58.8,29.5L47.9,53c-1.1,2.4-3.9,3.4-6.3,2.3l-6.4-3c-0.5-0.2-0.8-0.6-0.8-1.1c0-0.7,0.5-1.2,1.2-1.2
	c0.2,0,0.4,0.1,0.6,0.2l0,0l6.5,3c1.2,0.6,2.6,0,3.1-1.1l10.9-23.5c0.6-1.2,0-2.6-1.1-3.1l-8.1-3.8c0,0-1.2-0.4-1.2-1.3
	c0-0.7,0.5-1.2,1.2-1.2c0.2,0,0.4,0.1,0.6,0.2l8.6,4C58.9,24.3,59.9,27.1,58.8,29.5z M37.9,46.2H9.5c-2.6,0-4.7-2.1-4.7-4.7V13
	c0-2.6,2.1-4.7,4.7-4.7h28.4c2.6,0,4.7,2.1,4.7,4.7v28.4C42.7,44.1,40.5,46.2,37.9,46.2z M24.9,34.4v-1.2l1.4-0.6
	c0.7-0.6,2.4-2.2,2.4-2.2l0-0.2c0.4-1.8,0.9-4.7,0.9-5.7c0-3.8-1.8-5.6-5.9-5.6s-5.9,1.7-5.9,5.6c0,1,0.5,4,0.9,5.7l0,0.3
	c0.4,0.4,1.5,1.4,2.4,2.1l1.4,0.6v1.2c0-0.1,0,2.4,0,2.4c0,1.9-1.3,2.5-3.1,2.5c0,0,0,0,0,0c-4,0.2-4.7,1.5-4.8,1.6
	c-0.1,0.2-0.3,2.6-0.4,3h19c-0.1-0.4-0.3-2.8-0.4-3c-0.1-0.1-0.6-1.4-4.7-1.6c-1.9,0-3.2-0.6-3.2-2.5C24.9,36.7,24.9,34.2,24.9,34.4
	z M40.3,13c0-1.3-1.1-2.4-2.4-2.4H9.5c-1.3,0-2.4,1.1-2.4,2.4v28.4c0,1.3,1.1,2.4,2.4,2.4h2.1c0.4-0.8,0.6-3.7,1.1-4.4
	c0,0,0.7-2.4,6.6-2.6c0.6,0,0.9-0.4,0.9-0.9c0-0.5,0-0.8,0-0.8c0-0.1,0-0.2,0-0.3c-0.5-0.4-0.6-0.6-1.5-1.3c0,0-2-1.3-2.2-2.8
	c0,0-0.9-4.5-0.9-6.2c0-4.1,1.8-7.9,8.3-7.9c6.4,0,8.3,3.8,8.3,7.9c0,1.6-0.9,6.2-0.9,6.2c-0.2,1.4-2.2,2.8-2.2,2.8
	c-0.8,0.7-1.2,1.1-1.6,1.4c0,0.1,0,0.2,0,0.3c0,0,0,0.4,0,0.8c0,0.6,0.3,0.9,0.9,0.9c5.9,0.3,6.6,2.6,6.6,2.6
	c0.4,0.6,0.6,3.6,1.1,4.4h2.1c1.3,0,2.4-1.1,2.4-2.4L40.3,13L40.3,13z"/>
</svg>
