<?xml version="1.0" encoding="utf-8"?>
<!-- Generator: Adobe Illustrator 25.2.1, SVG Export Plug-In . SVG Version: 6.00 Build 0)  -->
<svg version="1.1" id="Layer_1" xmlns="http://www.w3.org/2000/svg" xmlns:xlink="http://www.w3.org/1999/xlink" x="0px" y="0px"
	 viewBox="0 0 64 64" style="enable-background:new 0 0 64 64;" xml:space="preserve">
<style type="text/css">
	.st0{fill:#FF4B6F;}
</style>
<g id="Layer_18">
	<g>
		<path class="st0" d="M52.6,4.9c3.2,2.4,4.9,6.6,4.7,11.6c-0.2,5.2-2.3,10.8-6,15.7c-2.6,3.4-5.7,6.2-9.1,8.1
			c-3.3,1.8-6.6,2.8-9.7,2.8c-2.3,0-4.4-0.5-6.2-1.6c-0.2-0.1-0.4-0.2-0.6-0.2c-0.1,0-0.2,0-0.3,0c-0.3,0.1-0.6,0.3-0.8,0.6
			c-3.4,5.9-5.9,9.9-6.6,10.8c-1,1.4-5.5,5.6-7.2,7.1c-0.4,0.3-1.6,1.2-2.7,1.2c-0.3,0-0.6-0.1-0.9-0.3c-1.3-1,0-3.6,0-3.6
			c0,0,0,0,0,0c0-0.1,3.1-6.5,4.8-8.8C13.6,46.5,19,41,21,39l0.5,0.4c0,0,0.1,0,0.1,0.1c1.9,1.2,4.2,1.9,6.8,1.9
			c3.3,0,6.8-1.1,10.3-3.1c3.5-2,6.7-4.9,9.4-8.5c3.8-5,6-10.6,6.4-16c0.2-2.6-0.2-5.1-1-7.2C53.2,6,52.9,5.4,52.6,4.9 M48,1.6
			c0.2,0.2,0.5,0.3,0.7,0.5c6.6,5,5.8,17.1-1.7,26.9c-5.3,7-12.6,11-18.7,11c-2.2,0-4.3-0.5-6.1-1.7l-1.4-1c0,0-7.8,7.8-9.7,10.3
			c-1.9,2.5-5,9-5,9s-1.8,3.5,0.4,5.2c0.5,0.4,1.1,0.5,1.6,0.5c1.8,0,3.5-1.6,3.5-1.6s6-5.5,7.4-7.2c1-1.4,5-8.2,6.7-11
			c2,1.2,4.3,1.8,6.8,1.8c6.6,0,14.3-4.1,19.8-11.4c8-10.5,8.5-23.5,1.1-29.1C51.7,2.7,49.9,1.9,48,1.6L48,1.6z"/>
		<path class="st0" d="M45.7,4.8c0.1,0,0.2,0,0.4,0.1l4.7,3.6C50.9,8.6,51,8.8,51,8.9c0,0.1,0,0.3-0.1,0.5c-0.1,0.2-0.3,0.3-0.5,0.3
			c-0.1,0-0.2,0-0.4-0.1l-4.7-3.6c-0.2-0.1-0.2-0.3-0.2-0.4c0-0.1,0-0.3,0.1-0.5C45.3,4.9,45.5,4.8,45.7,4.8 M45.7,3.6
			c-0.6,0-1.1,0.3-1.5,0.7c-0.6,0.8-0.5,2,0.4,2.6l4.7,3.6c0.3,0.3,0.7,0.4,1.1,0.4c0.6,0,1.1-0.3,1.5-0.7c0.6-0.8,0.5-2-0.4-2.6
			l-4.7-3.6C46.5,3.7,46.1,3.6,45.7,3.6L45.7,3.6z"/>
		<path class="st0" d="M39.1,5.8L39.1,5.8L39.1,5.8 M39,5.8L41.8,8c0,0.1,0,0.2-0.2,0.4c-0.1,0.1-0.2,0.2-0.3,0.2l-2.8-2.3
			c0-0.1,0.1-0.2,0.2-0.4C38.8,5.9,38.9,5.8,39,5.8 M39.1,4.5c-0.5,0-1,0.3-1.3,0.7c-0.6,0.7-0.6,1.6-0.1,2l3,2.4
			c0.2,0.1,0.4,0.2,0.6,0.2c0.5,0,1-0.3,1.3-0.7c0.6-0.7,0.6-1.6,0.1-2l-3-2.4C39.5,4.6,39.3,4.5,39.1,4.5L39.1,4.5z"/>
		<path class="st0" d="M34.9,9.4L34.9,9.4L34.9,9.4 M34.8,9.4l2.8,2.3c0,0.1,0,0.2-0.2,0.4c-0.1,0.1-0.2,0.2-0.3,0.2L34.3,10
			c0-0.1,0.1-0.2,0.2-0.4C34.6,9.5,34.7,9.4,34.8,9.4 M34.9,8.2c-0.5,0-1,0.3-1.3,0.7c-0.6,0.7-0.6,1.6-0.1,2l3,2.4
			c0.2,0.1,0.4,0.2,0.6,0.2c0.5,0,1-0.3,1.3-0.7c0.6-0.7,0.6-1.6,0.1-2l-3-2.4C35.3,8.2,35.1,8.2,34.9,8.2L34.9,8.2z"/>
		<path class="st0" d="M30.6,15L30.6,15L30.6,15 M30.5,15l2.8,2.3c0,0.1-0.1,0.2-0.2,0.4c-0.1,0.1-0.2,0.2-0.3,0.2L30,15.6
			c0-0.1,0-0.2,0.2-0.4C30.3,15.1,30.4,15.1,30.5,15 M30.6,13.8c-0.5,0-1,0.3-1.3,0.7c-0.6,0.7-0.6,1.6-0.1,2l3,2.4
			c0.2,0.1,0.4,0.2,0.6,0.2c0.5,0,1-0.3,1.3-0.7c0.6-0.7,0.6-1.6,0.1-2l-3-2.4C31,13.9,30.8,13.8,30.6,13.8L30.6,13.8z"/>
		<path class="st0" d="M27.2,20.2L27.2,20.2L27.2,20.2 M27.1,20.2l2.8,2.3c0,0.1-0.1,0.2-0.2,0.4c-0.1,0.1-0.2,0.2-0.3,0.2l-2.8-2.3
			c0-0.1,0.1-0.2,0.2-0.4C26.9,20.3,27.1,20.2,27.1,20.2 M27.2,19c-0.5,0-1,0.3-1.3,0.7c-0.6,0.7-0.6,1.6-0.1,2l3,2.4
			c0.2,0.1,0.4,0.2,0.6,0.2c0.5,0,1-0.3,1.3-0.7c0.6-0.7,0.6-1.6,0.1-2l-3-2.4C27.6,19,27.4,19,27.2,19L27.2,19z"/>
		<path class="st0" d="M24.3,26L24.3,26L24.3,26 M24.2,26l2.8,2.3c0,0.1,0,0.2-0.2,0.4c-0.1,0.1-0.2,0.2-0.3,0.2l-2.8-2.3
			c0-0.1,0.1-0.2,0.2-0.4C24,26.1,24.2,26,24.2,26 M24.3,24.7c-0.5,0-1,0.3-1.3,0.7c-0.6,0.7-0.6,1.6-0.1,2l3,2.4
			c0.2,0.1,0.4,0.2,0.6,0.2c0.5,0,1-0.3,1.3-0.7c0.6-0.7,0.6-1.6,0.1-2l-3-2.4C24.7,24.8,24.5,24.7,24.3,24.7L24.3,24.7z"/>
		<path class="st0" d="M24.4,32.9c0.1,0,0.2,0,0.4,0.1l4.7,3.6c0.2,0.1,0.2,0.3,0.2,0.4c0,0.2,0,0.3-0.1,0.5
			c-0.1,0.2-0.3,0.2-0.5,0.2c-0.1,0-0.2,0-0.4-0.1L24,34c-0.3-0.2-0.3-0.6-0.1-0.9C24,33,24.2,32.9,24.4,32.9 M24.4,31.7
			c-0.6,0-1.1,0.3-1.5,0.7c-0.6,0.8-0.5,2,0.4,2.6l4.7,3.6c0.3,0.3,0.7,0.4,1.1,0.4c0.6,0,1.1-0.3,1.5-0.7c0.6-0.8,0.5-2-0.4-2.6
			L25.5,32C25.2,31.8,24.8,31.7,24.4,31.7L24.4,31.7z"/>
		<path class="st0" d="M45.7,10.4c0.1,0,0.2,0,0.4,0.1l4.7,3.6c0.3,0.2,0.3,0.6,0.1,0.9c-0.1,0.2-0.3,0.2-0.5,0.2
			c-0.1,0-0.2,0-0.4-0.1l-4.7-3.6c-0.3-0.2-0.3-0.6-0.1-0.9C45.3,10.5,45.5,10.4,45.7,10.4 M45.7,9.2c-0.6,0-1.1,0.3-1.5,0.7
			c-0.6,0.8-0.5,2,0.4,2.6l4.7,3.6c0.3,0.3,0.7,0.4,1.1,0.4c0.6,0,1.1-0.3,1.5-0.7c0.6-0.8,0.5-2-0.4-2.6l-4.7-3.6
			C46.5,9.3,46.1,9.2,45.7,9.2L45.7,9.2z"/>
		<path class="st0" d="M43.5,15.6c0.1,0,0.2,0,0.4,0.1l4.7,3.6c0.3,0.2,0.3,0.6,0.1,0.9c-0.1,0.2-0.3,0.3-0.5,0.3
			c-0.1,0-0.2,0-0.4-0.1l-4.7-3.6c-0.3-0.2-0.3-0.6-0.1-0.9C43.2,15.7,43.3,15.6,43.5,15.6 M43.5,14.3c-0.6,0-1.1,0.3-1.5,0.7
			c-0.6,0.8-0.5,2,0.4,2.6l4.7,3.6c0.3,0.3,0.7,0.4,1.1,0.4c0.6,0,1.1-0.3,1.5-0.7c0.6-0.8,0.5-2-0.4-2.6l-4.7-3.6
			C44.3,14.5,43.9,14.3,43.5,14.3L43.5,14.3z"/>
		<path class="st0" d="M40.7,20.6c0.1,0,0.2,0,0.4,0.1l4.7,3.6c0.3,0.2,0.3,0.6,0.1,0.9c-0.1,0.2-0.3,0.3-0.5,0.3
			c-0.1,0-0.2,0-0.4-0.1l-4.7-3.6c-0.3-0.2-0.3-0.6-0.1-0.9C40.3,20.7,40.5,20.6,40.7,20.6 M40.7,19.4c-0.6,0-1.1,0.3-1.5,0.7
			c-0.6,0.8-0.5,2,0.4,2.6l4.7,3.6c0.3,0.3,0.7,0.4,1.1,0.4c0.6,0,1.1-0.3,1.5-0.7c0.6-0.8,0.5-2-0.4-2.6l-4.7-3.6
			C41.5,19.5,41.1,19.4,40.7,19.4L40.7,19.4z"/>
		<path class="st0" d="M37.3,26c0.1,0,0.2,0,0.4,0.1l4.7,3.6c0.3,0.2,0.3,0.6,0.1,0.9c-0.1,0.2-0.3,0.3-0.5,0.3
			c-0.1,0-0.2,0-0.4-0.1L37,27.1c-0.3-0.2-0.3-0.6-0.1-0.9C37,26.1,37.1,26,37.3,26 M37.3,24.7c-0.6,0-1.1,0.3-1.5,0.7
			c-0.6,0.8-0.5,2,0.4,2.6l4.7,3.6c0.3,0.3,0.7,0.4,1.1,0.4c0.6,0,1.1-0.3,1.5-0.7c0.6-0.8,0.5-2-0.4-2.6l-4.7-3.6
			C38.1,24.9,37.7,24.7,37.3,24.7L37.3,24.7z"/>
		<path class="st0" d="M31.4,30.4c0.1,0,0.2,0,0.4,0.1l4.7,3.6c0.1,0.1,0.2,0.3,0.2,0.4c0,0.2,0,0.3-0.1,0.5
			c-0.1,0.2-0.3,0.3-0.5,0.3c-0.1,0-0.2,0-0.4-0.1L31,31.5c-0.2-0.1-0.2-0.3-0.2-0.4c0-0.2,0-0.3,0.1-0.5
			C31,30.5,31.2,30.4,31.4,30.4 M31.4,29.1c-0.6,0-1.1,0.3-1.5,0.7c-0.6,0.8-0.5,2,0.4,2.6l4.7,3.6c0.3,0.3,0.7,0.4,1.1,0.4
			c0.6,0,1.1-0.3,1.5-0.7c0.6-0.8,0.5-2-0.4-2.6l-4.7-3.6C32.2,29.3,31.8,29.1,31.4,29.1L31.4,29.1z"/>
	</g>
</g>
</svg>
