<?xml version="1.0" encoding="utf-8"?>
<!-- Generator: Adobe Illustrator 25.2.1, SVG Export Plug-In . SVG Version: 6.00 Build 0)  -->
<svg version="1.1" id="Layer_1" xmlns="http://www.w3.org/2000/svg" xmlns:xlink="http://www.w3.org/1999/xlink" x="0px" y="0px"
	 viewBox="0 0 64 64" style="enable-background:new 0 0 64 64;" xml:space="preserve">
<style type="text/css">
	.st0{fill:#FF4B6F;}
</style>
<path class="st0" d="M43.9,33.2c-1-0.6-1.5,0.3-1.5,0.7c0,0.4,0.1,0.7,0.9,0.9C44.2,34.9,44.7,33.7,43.9,33.2z M47.4,31.9
	c-0.6-0.4-1,0.2-0.9,0.4c0,0.3,0.1,0.4,0.6,0.6C47.5,33,47.9,32.2,47.4,31.9L47.4,31.9z M44.1,28.2c-0.8-0.5-1.3,0.3-1.2,0.6
	c0,0.4,0.1,0.6,0.8,0.8C44.3,29.7,44.7,28.6,44.1,28.2L44.1,28.2z M40.5,26.4c-1-0.6-1.5,0.3-1.5,0.7c0,0.4,0.1,0.7,0.9,0.9
	C40.8,28.1,41.3,26.8,40.5,26.4z M44.9,22.8c-1-0.6-1.5,0.3-1.5,0.7c0,0.4,0.1,0.7,0.9,0.9C45.2,24.5,45.7,23.3,44.9,22.8z M40,23.6
	c-0.7-0.4-1.1,0.2-1.1,0.5c0,0.3,0.1,0.5,0.7,0.6C40.2,24.8,40.5,23.9,40,23.6z M22.7,28.7c1,0.2,1.6-1.4,0.7-2
	c-1.2-0.8-1.9,0.4-1.9,0.8C21.6,28.2,21.7,28.5,22.7,28.7L22.7,28.7z M24.1,33.1c-1.2-0.7-1.8,0.4-1.7,0.8c0.1,0.5,0.2,0.8,1.1,1
	C24.4,35.1,25,33.6,24.1,33.1L24.1,33.1z M27.1,28.3c-0.7-0.4-1.1,0.2-1,0.5c0,0.3,0.1,0.5,0.6,0.6C27.3,29.5,27.6,28.6,27.1,28.3
	L27.1,28.3z M20,33.9c-0.9-0.5-1.3,0.3-1.3,0.6c0,0.4,0.1,0.6,0.8,0.8C20.2,35.4,20.6,34.3,20,33.9z M21.8,38.5
	c-0.7-0.4-1.1,0.2-1.1,0.5c0,0.3,0.1,0.5,0.7,0.7C22,39.8,22.4,38.8,21.8,38.5L21.8,38.5z M31.9,4.1c1.8,0.4,3.1-2.6,1.3-3.6
	c-2.3-1.4-3.5,0.8-3.5,1.6C29.8,3.1,30,3.7,31.9,4.1z M32.4,1.3c0.7,0.4,0.2,1.7-0.5,1.5C31.1,2.6,31,2.4,31,2
	C31,1.6,31.5,0.7,32.4,1.3L32.4,1.3z M58.8,49.1c-0.8-1.1-6.2,1-6.4,1.1c-0.2,0-3.4-10.3-3.5-10.6c0-0.3,1-1.1,1.6-2.8
	c0.6-1.7,1.2-4.9,0.6-7.1c-0.7-2.2-6.9-18.1-7.4-18.6c-0.5-0.5-3.8,0-6.1,0.8c-2.3,0.8-6.5,2.2-6.5,2.7c0,0.5,1.8,5.6,1.8,5.6
	s-2.3-1.5-4.7-2.4c-2.4-0.9-6.3-1.8-6.7-1.5C20.1,17.5,14,35.7,14,37.2s2.5,6.4,2.4,6.6c0,0.2-5.5,15.3-5.5,15.3S6.4,58,6,58.9
	c-0.3,0.9,1.8,3.4,4.8,4.3s7.3,1.2,7.6,0.4c0.2-0.7-3.3-3-3.5-3.3c-0.2-0.3,5.4-14.9,5.9-15.1c0.5-0.3,4.9-2.2,5.4-2.7
	c0.5-0.5,1.6-1.5,3.2-5.5s4.1-14.3,4.1-14.3s3.8,12.4,5.5,14.9c1.7,2.5,5.9,2.9,5.9,3c0.1,0,4.2,10.8,4.2,10.8c-3,1.5-5,4-4.4,4.8
	s3.5,0.5,8-1.3C57.2,53,59.7,50.2,58.8,49.1L58.8,49.1z M26.3,39.3c-1.2,2.2-5.4,3.7-6.1,4.3c-0.7,0.6-6.5,15.9-6.6,16.7
	c-0.1,0.8,2.3,2,2.3,2.3c0,0.3-3.2,0-4.5-0.6c-1.3-0.6-3.2-2.2-3.1-2.3c0-0.1,3,0.7,3.2,0.5c0.2-0.1,6.5-17.4,6.5-17.5
	c0-0.1-1.6-4.8-1.8-5.9S20,24.5,21,22.6c0.1-0.1,2-0.5,2.9-0.3c0.9,0.2,1.9,0.7,2.6,0.8c0.8,0,2.6-0.4,2.9-0.3
	c0.3,0.1,1.8,0.5,1.8,0.6C31.3,23.5,27.5,37.1,26.3,39.3L26.3,39.3z M31.5,22.3c0,0-0.2-1.2-2.4-0.8c-2.1,0.4-2,0.6-2.9,0.4
	c-0.8-0.1-1.9-0.6-2.4-0.7c-0.5,0-2.5,0.3-2.5,0.2c0-0.1,1.2-3.9,1.3-4c0.2-0.2,3.2,0.7,5.3,1.4c2,0.8,4.1,2,4.1,2.2
	S31.5,22.3,31.5,22.3L31.5,22.3z M33.3,15c0.1-0.1,2.7-1.2,4.6-1.8s4.6-1.2,4.7-1c0.1,0.1,1.8,5,1.8,5.2c-0.1,0.2-2.9-0.2-3.6,0
	s-2.1,0.8-2.7,0.8c-0.6,0-1.3-0.4-1.8-0.3c-0.5,0-1.7,0.5-1.7,0.5C34.5,18.4,33.2,15.1,33.3,15L33.3,15z M45.7,39.8
	c-1.4-1.7-3.3-1.8-4.2-2.7c-0.9-0.9-3.2-6.9-4.8-11.3c-1.6-4.4-2.2-6.5-1.6-6.3c0,0,0.7-0.4,1.6-0.3c0.9,0.1,1.4,0.4,2,0.2
	c0.6-0.2,1.3-0.7,2-0.7c0.7,0,2.3,0.3,3,0.3c0.6,0,1.3-0.4,1.3-0.4s4.3,10.8,4.5,11.7s-0.2,5.1-0.9,6.3s-0.8,2.5-0.8,2.8
	c0.1,0.2,3.8,12,3.9,12.2c0.1,0.2,0.3,0.6,0.2,0.8c-0.1,0.2-0.9,0.3-0.9,0.3S47.1,41.5,45.7,39.8L45.7,39.8z M52,53.8
	c-2.9,1.2-5.7,1.9-5.9,1.6c-0.2-0.3,2.3-2.9,3.3-3.1c0.1,0,0.5,1.2,0.7,1.3c0.2,0.1,1.5-0.4,2.1-0.6c0.6-0.3,1-0.6,0.8-0.7
	c-0.1-0.2-0.3-0.6-0.3-0.7c0.1-0.1,4.2-2.2,4.8-1.5C58.1,50.6,54.9,52.6,52,53.8L52,53.8z M25.7,7.8c1.8,0.4,3-2.6,1.3-3.7
	c-2.3-1.4-3.5,0.8-3.5,1.6C23.7,6.8,23.9,7.4,25.7,7.8L25.7,7.8z M26.3,5c0.7,0.4,0.2,1.7-0.5,1.5c-0.8-0.2-0.9-0.4-0.9-0.9
	C24.8,5.4,25.3,4.5,26.3,5L26.3,5z M29.9,9.2c0.1,1,0.3,1.5,2,1.9c1.7,0.4,2.8-2.4,1.2-3.3C31,6.5,29.8,8.5,29.9,9.2L29.9,9.2z
	 M31.9,10c-0.7-0.2-0.8-0.4-0.8-0.8c0-0.3,0.4-1.1,1.3-0.6C33.1,9,32.6,10.1,31.9,10z"/>
</svg>
