<?xml version="1.0" encoding="utf-8"?>
<!-- Generator: Adobe Illustrator 25.2.1, SVG Export Plug-In . SVG Version: 6.00 Build 0)  -->
<svg version="1.1" id="Outline" xmlns="http://www.w3.org/2000/svg" xmlns:xlink="http://www.w3.org/1999/xlink" x="0px" y="0px"
	 viewBox="0 0 64 64" style="enable-background:new 0 0 64 64;" xml:space="preserve">
<style type="text/css">
	.st0{fill:#FF4B6F;}
</style>
<desc></desc>
<g>
	<path class="st0" d="M55.3,35.7l-4-1.3l-5.4-5.4c0-0.2,0.1-0.4,0.1-0.6v-6.1c0-1-0.5-1.9-1.3-2.5c-0.8-0.6-1.9-0.7-2.8-0.3
		l-6.2,2.5c-0.9-1-2.2-1.7-3.7-1.7s-2.8,0.6-3.7,1.6l-6.2-2.5c-0.9-0.4-2-0.3-2.8,0.3c-0.8,0.6-1.3,1.5-1.3,2.5v6.1
		c0,0.2,0,0.4,0.1,0.6l-5.4,5.4l-4,1.3C8.4,35.8,8.1,36,8,36.4c-0.1,0.3,0,0.7,0.3,0.9l14.1,14.1c0.2,0.2,0.4,0.3,0.7,0.3
		c0.1,0,0.2,0,0.2,0c0.3-0.1,0.6-0.3,0.7-0.7l1.3-4l6.6-6.6l6.6,6.6l1.3,4c0.1,0.3,0.4,0.6,0.7,0.7c0.1,0,0.2,0,0.2,0
		c0.3,0,0.5-0.1,0.7-0.3l14.1-14.1c0.2-0.2,0.3-0.6,0.3-0.9C55.9,36,55.6,35.8,55.3,35.7z M42.6,21.3c0.3-0.1,0.7-0.1,0.9,0.1
		c0.3,0.2,0.4,0.5,0.4,0.8v6.1c0,0.3-0.2,0.6-0.4,0.8c-0.3,0.2-0.6,0.2-0.9,0.1l-5.9-2.4c0.2-0.5,0.3-1,0.3-1.6s-0.1-1.1-0.3-1.6
		L42.6,21.3z M32,22.3c1.7,0,3,1.3,3,3s-1.3,3-3,3s-3-1.3-3-3S30.3,22.3,32,22.3z M20,22.2c0-0.3,0.2-0.6,0.4-0.8
		c0.3-0.2,0.6-0.2,0.9-0.1l5.9,2.4c-0.2,0.5-0.3,1-0.3,1.6s0.1,1.1,0.3,1.6l-5.9,2.4c-0.3,0.1-0.7,0.1-0.9-0.1
		c-0.3-0.2-0.4-0.5-0.4-0.8V22.2z M24.6,45.1l-5.7-5.7l-1.4,1.4l5.9,5.9l-0.7,2.1L10.9,37l2.7-0.9c0.1,0,0.3-0.1,0.4-0.2l5.2-5.2
		c0,0,0.1,0.1,0.1,0.1c0.5,0.3,1.1,0.5,1.7,0.5c0.4,0,0.8-0.1,1.1-0.2l6.2-2.5c0.9,1,2.2,1.7,3.7,1.7c0,0,0,0,0,0
		c1.6,2.7,1.2,6.2-1.1,8.5L24.6,45.1z M41.3,48.9l-0.9-2.7c0-0.1-0.1-0.3-0.2-0.4L33.3,39c1.9-2.7,2.2-6.2,0.7-9.2
		c0.6-0.3,1.2-0.7,1.6-1.2l6.2,2.5c0.4,0.1,0.7,0.2,1.1,0.2c0.6,0,1.2-0.2,1.7-0.5c0,0,0.1-0.1,0.1-0.1l4.5,4.5l-5.7,5.7l1.4,1.4
		l5.9-5.9l2.1,0.7L41.3,48.9z"/>
	<rect x="41.3" y="42.7" transform="matrix(0.7071 -0.7071 0.7071 0.7071 -18.5037 42.6709)" class="st0" width="2" height="2"/>
	<rect x="15.1" y="37" transform="matrix(0.7071 -0.7071 0.7071 0.7071 -22.1686 22.5081)" class="st0" width="2" height="2"/>
	<path class="st0" d="M16,25.3v-8c0-2.8-2.2-5-5-5c-2.4,0-4.5,1.8-4.9,4.1C3.8,16.8,2,18.8,2,21.3c0,2.8,2.2,5,5,5h8
		C15.6,26.3,16,25.8,16,25.3z M14,24.3H7c-1.7,0-3-1.3-3-3s1.3-3,3-3c0.6,0,1-0.4,1-1c0-1.7,1.3-3,3-3s3,1.3,3,3V24.3z"/>
	<path class="st0" d="M57.9,16.3c-0.4-2.3-2.5-4.1-4.9-4.1c-2.8,0-5,2.2-5,5v8c0,0.6,0.4,1,1,1h8c2.8,0,5-2.2,5-5
		C62,18.8,60.2,16.8,57.9,16.3z M57,24.3h-7v-7c0-1.7,1.3-3,3-3s3,1.3,3,3c0,0.6,0.4,1,1,1c1.7,0,3,1.3,3,3
		C60,22.9,58.7,24.3,57,24.3z"/>
</g>
</svg>
